<svg width="179" height="55" viewBox="0 0 179 55" fill="none" xmlns="http://www.w3.org/2000/svg">
<rect width="179" height="55" fill="#FFE666"/>
<path d="M81.7138 13.25L67.732 43.9583H77.6113L80.7928 35.8333H76.1043L83.7231 19.1667L84.3092 31.8333H89.1651L85.4813 43.9583H99.2537L85.0627 13.25H81.7138Z" fill="#112037"/>
<path d="M12.6871 44.44C10.4473 44.4693 8.50225 44.1173 6.8519 43.384C5.20155 42.6507 3.62487 41.5507 2.12188 40.084C1.97452 39.9667 1.84191 39.82 1.72403 39.644C1.63561 39.468 1.59141 39.2627 1.59141 39.028C1.59141 38.676 1.72403 38.3533 1.98926 38.06C2.28397 37.7667 2.60814 37.62 2.96179 37.62C3.31543 37.62 3.63961 37.7667 3.93432 38.06C5.08367 39.292 6.38037 40.2307 7.82442 40.876C9.29795 41.5213 10.8746 41.844 12.5544 41.844C13.969 41.844 15.2215 41.624 16.3119 41.184C17.4318 40.744 18.3159 40.1133 18.9643 39.292C19.6126 38.4707 19.9368 37.5173 19.9368 36.432C19.9368 35.0827 19.5684 33.9973 18.8317 33.176C18.0949 32.3253 17.1224 31.636 15.9141 31.108C14.7058 30.5507 13.3649 30.052 11.8914 29.612C10.6831 29.26 9.53372 28.864 8.44331 28.424C7.3529 27.9547 6.38037 27.3973 5.52572 26.752C4.67108 26.0773 4.00799 25.256 3.53646 24.288C3.06493 23.32 2.82917 22.1467 2.82917 20.768C2.82917 19.2133 3.24176 17.8347 4.06693 16.632C4.89211 15.4293 6.05619 14.4907 7.55919 13.816C9.09166 13.112 10.8599 12.76 12.8639 12.76C14.6026 12.76 16.2677 13.0533 17.8591 13.64C19.48 14.2267 20.762 15.092 21.705 16.236C22.1471 16.7053 22.3681 17.1307 22.3681 17.512C22.3681 17.8053 22.2208 18.0987 21.9261 18.392C21.6314 18.6853 21.3072 18.832 20.9535 18.832C20.6588 18.832 20.4083 18.7293 20.202 18.524C19.701 17.908 19.0674 17.3653 18.3012 16.896C17.535 16.3973 16.6803 16.016 15.7373 15.752C14.8237 15.488 13.8659 15.356 12.8639 15.356C11.4788 15.356 10.2263 15.576 9.10639 16.016C8.01598 16.4267 7.1466 17.028 6.49825 17.82C5.87937 18.612 5.56993 19.5653 5.56993 20.68C5.56993 21.912 5.92358 22.924 6.63087 23.716C7.33816 24.508 8.26648 25.168 9.41583 25.696C10.5652 26.1947 11.7882 26.664 13.0849 27.104C14.3521 27.456 15.5604 27.8667 16.7098 28.336C17.8886 28.776 18.9201 29.3333 19.8042 30.008C20.7178 30.6827 21.4251 31.5333 21.9261 32.56C22.4565 33.5867 22.7218 34.8773 22.7218 36.432C22.7218 37.928 22.2945 39.2773 21.4398 40.48C20.5852 41.6827 19.4063 42.636 17.9033 43.34C16.4298 44.044 14.6911 44.4107 12.6871 44.44ZM49.622 13.2C51.2724 13.2 52.7312 13.5813 53.9984 14.344C55.2656 15.0773 56.2676 16.104 57.0044 17.424C57.7411 18.744 58.1095 20.2547 58.1095 21.956C58.1095 23.6573 57.7411 25.1973 57.0044 26.576C56.2676 27.9253 55.2656 28.996 53.9984 29.788C52.7312 30.58 51.2724 30.976 49.622 30.976H40.2504L40.4714 30.536V42.68C40.4714 43.032 40.3388 43.34 40.0736 43.604C39.8083 43.868 39.4989 44 39.1452 44C38.7326 44 38.4085 43.868 38.1727 43.604C37.9369 43.34 37.8191 43.032 37.8191 42.68V14.52C37.8191 14.168 37.9517 13.86 38.2169 13.596C38.4821 13.332 38.7916 13.2 39.1452 13.2H49.622ZM49.622 28.424C50.7714 28.424 51.7734 28.1453 52.628 27.588C53.4827 27.0013 54.1457 26.224 54.6173 25.256C55.1183 24.2587 55.3688 23.1587 55.3688 21.956C55.3688 20.7533 55.1183 19.6973 54.6173 18.788C54.1457 17.8493 53.4827 17.116 52.628 16.588C51.7734 16.06 50.7714 15.796 49.622 15.796H40.2504L40.4714 15.4V28.688L40.2062 28.424H49.622ZM116.354 44C115.912 44 115.544 43.868 115.249 43.604C114.984 43.34 114.851 43.032 114.851 42.68V14.52C114.851 14.168 114.984 13.86 115.249 13.596C115.514 13.332 115.823 13.2 116.178 13.2H128.113C129.793 13.2 131.295 13.5667 132.622 14.3C133.948 15.004 134.979 15.9867 135.716 17.248C136.483 18.5093 136.865 19.932 136.865 21.516C136.865 22.8067 136.63 23.9947 136.158 25.08C135.687 26.1653 135.024 27.0893 134.169 27.852C133.315 28.5853 132.357 29.128 131.295 29.48L129.748 28.996C130.839 29.084 131.856 29.436 132.799 30.052C133.742 30.6387 134.494 31.46 135.053 32.516C135.642 33.5427 135.952 34.7893 135.981 36.256C136.011 37.5173 136.07 38.5 136.158 39.204C136.276 39.908 136.439 40.436 136.644 40.788C136.851 41.14 137.116 41.4187 137.441 41.624C137.735 41.8 137.926 42.0493 138.015 42.372C138.133 42.6947 138.104 43.0027 137.926 43.296C137.809 43.5307 137.632 43.7067 137.396 43.824C137.189 43.912 136.968 43.956 136.733 43.956C136.497 43.956 136.262 43.8973 136.026 43.78C135.613 43.5453 135.186 43.1787 134.744 42.68C134.331 42.1813 133.978 41.448 133.683 40.48C133.418 39.512 133.285 38.1627 133.285 36.432C133.285 35.288 133.094 34.3493 132.71 33.616C132.357 32.8827 131.885 32.3253 131.295 31.944C130.736 31.5333 130.102 31.2547 129.395 31.108C128.717 30.932 128.069 30.844 127.45 30.844H117.15L117.636 30.228V42.68C117.636 43.032 117.518 43.34 117.283 43.604C117.047 43.868 116.738 44 116.354 44ZM117.15 28.424H128.245C129.248 28.336 130.19 28.0133 131.074 27.456C131.958 26.8693 132.666 26.0773 133.197 25.08C133.757 24.0827 134.036 22.924 134.036 21.604C134.036 19.932 133.462 18.5533 132.313 17.468C131.192 16.3533 129.719 15.796 127.892 15.796H117.327L117.636 15.18V29.04L117.15 28.424ZM175.41 44.176C175.026 44.176 174.702 44.0147 174.437 43.692L161.883 27.984L163.96 25.916L176.603 41.844C176.81 42.1373 176.913 42.4453 176.913 42.768C176.913 43.2373 176.736 43.5893 176.382 43.824C176.058 44.0587 175.734 44.176 175.41 44.176ZM174.924 13.288C175.277 13.288 175.572 13.42 175.808 13.684C176.073 13.948 176.205 14.2413 176.205 14.564C176.205 14.916 176.073 15.224 175.808 15.488L155.738 34.188L155.384 31.196L173.951 13.728C174.245 13.4347 174.569 13.288 174.924 13.288ZM154.677 44C154.265 44 153.926 43.868 153.66 43.604C153.424 43.34 153.307 43.0173 153.307 42.636V14.564C153.307 14.1827 153.439 13.86 153.705 13.596C153.97 13.332 154.308 13.2 154.721 13.2C155.105 13.2 155.429 13.332 155.694 13.596C155.959 13.86 156.092 14.1827 156.092 14.564V42.636C156.062 43.0173 155.915 43.34 155.65 43.604C155.384 43.868 155.06 44 154.677 44Z" fill="#112037"/>
</svg>
