<svg width="2138" height="660" viewBox="0 0 2138 660" fill="none" xmlns="http://www.w3.org/2000/svg">
<path d="M976 159L809 527.5H927L965 430H909L1000 230L1007 382H1065L1021 527.5H1185.5L1016 159H976Z" fill="black"/>
<path d="M151.536 533.28C124.784 533.632 101.552 529.408 81.84 520.608C62.128 511.808 43.296 498.608 25.344 481.008C23.584 479.6 22 477.84 20.592 475.728C19.536 473.616 19.008 471.152 19.008 468.336C19.008 464.112 20.592 460.24 23.76 456.72C27.28 453.2 31.152 451.44 35.376 451.44C39.6 451.44 43.472 453.2 46.992 456.72C60.72 471.504 76.208 482.768 93.456 490.512C111.056 498.256 129.888 502.128 149.952 502.128C166.848 502.128 181.808 499.488 194.832 494.208C208.208 488.928 218.768 481.36 226.512 471.504C234.256 461.648 238.128 450.208 238.128 437.184C238.128 420.992 233.728 407.968 224.928 398.112C216.128 387.904 204.512 379.632 190.08 373.296C175.648 366.608 159.632 360.624 142.032 355.344C127.6 351.12 113.872 346.368 100.848 341.088C87.824 335.456 76.208 328.768 66 321.024C55.792 312.928 47.872 303.072 42.24 291.456C36.608 279.84 33.792 265.76 33.792 249.216C33.792 230.56 38.72 214.016 48.576 199.584C58.432 185.152 72.336 173.888 90.288 165.792C108.592 157.344 129.712 153.12 153.648 153.12C174.416 153.12 194.304 156.64 213.312 163.68C232.672 170.72 247.984 181.104 259.248 194.832C264.528 200.464 267.168 205.568 267.168 210.144C267.168 213.664 265.408 217.184 261.888 220.704C258.368 224.224 254.496 225.984 250.272 225.984C246.752 225.984 243.76 224.752 241.296 222.288C235.312 214.896 227.744 208.384 218.592 202.752C209.44 196.768 199.232 192.192 187.968 189.024C177.056 185.856 165.616 184.272 153.648 184.272C137.104 184.272 122.144 186.912 108.768 192.192C95.744 197.12 85.36 204.336 77.616 213.84C70.224 223.344 66.528 234.784 66.528 248.16C66.528 262.944 70.752 275.088 79.2 284.592C87.648 294.096 98.736 302.016 112.464 308.352C126.192 314.336 140.8 319.968 156.288 325.248C171.424 329.472 185.856 334.4 199.584 340.032C213.664 345.312 225.984 352 236.544 360.096C247.456 368.192 255.904 378.4 261.888 390.72C268.224 403.04 271.392 418.528 271.392 437.184C271.392 455.136 266.288 471.328 256.08 485.76C245.872 500.192 231.792 511.632 213.84 520.08C196.24 528.528 175.472 532.928 151.536 533.28ZM592.692 158.4C612.404 158.4 629.828 162.976 644.964 172.128C660.1 180.928 672.068 193.248 680.868 209.088C689.668 224.928 694.068 243.056 694.068 263.472C694.068 283.888 689.668 302.368 680.868 318.912C672.068 335.104 660.1 347.952 644.964 357.456C629.828 366.96 612.404 371.712 592.692 371.712H480.756L483.396 366.432V512.16C483.396 516.384 481.812 520.08 478.644 523.248C475.476 526.416 471.78 528 467.556 528C462.628 528 458.756 526.416 455.94 523.248C453.124 520.08 451.716 516.384 451.716 512.16V174.24C451.716 170.016 453.3 166.32 456.468 163.152C459.636 159.984 463.332 158.4 467.556 158.4H592.692ZM592.692 341.088C606.42 341.088 618.388 337.744 628.596 331.056C638.804 324.016 646.724 314.688 652.356 303.072C658.34 291.104 661.332 277.904 661.332 263.472C661.332 249.04 658.34 236.368 652.356 225.456C646.724 214.192 638.804 205.392 628.596 199.056C618.388 192.72 606.42 189.552 592.692 189.552H480.756L483.396 184.8V344.256L480.228 341.088H592.692ZM1389.75 528C1384.47 528 1380.07 526.416 1376.55 523.248C1373.38 520.08 1371.8 516.384 1371.8 512.16V174.24C1371.8 170.016 1373.38 166.32 1376.55 163.152C1379.72 159.984 1383.41 158.4 1387.64 158.4H1530.2C1550.26 158.4 1568.21 162.8 1584.05 171.6C1599.89 180.048 1612.21 191.84 1621.01 206.976C1630.17 222.112 1634.74 239.184 1634.74 258.192C1634.74 273.68 1631.93 287.936 1626.29 300.96C1620.66 313.984 1612.74 325.072 1602.53 334.224C1592.33 343.024 1580.89 349.536 1568.21 353.76L1549.73 347.952C1562.76 349.008 1574.9 353.232 1586.17 360.624C1597.43 367.664 1606.41 377.52 1613.09 390.192C1620.13 402.512 1623.83 417.472 1624.18 435.072C1624.53 450.208 1625.24 462 1626.29 470.448C1627.7 478.896 1629.64 485.232 1632.1 489.456C1634.57 493.68 1637.73 497.024 1641.61 499.488C1645.13 501.6 1647.41 504.592 1648.47 508.464C1649.88 512.336 1649.53 516.032 1647.41 519.552C1646.01 522.368 1643.89 524.48 1641.08 525.888C1638.61 526.944 1635.97 527.472 1633.16 527.472C1630.34 527.472 1627.53 526.768 1624.71 525.36C1619.78 522.544 1614.68 518.144 1609.4 512.16C1604.47 506.176 1600.25 497.376 1596.73 485.76C1593.56 474.144 1591.97 457.952 1591.97 437.184C1591.97 423.456 1589.69 412.192 1585.11 403.392C1580.89 394.592 1575.25 387.904 1568.21 383.328C1561.53 378.4 1553.96 375.056 1545.51 373.296C1537.41 371.184 1529.67 370.128 1522.28 370.128H1399.25L1405.06 362.736V512.16C1405.06 516.384 1403.65 520.08 1400.84 523.248C1398.02 526.416 1394.33 528 1389.75 528ZM1399.25 341.088H1531.78C1543.75 340.032 1555.01 336.16 1565.57 329.472C1576.13 322.432 1584.58 312.928 1590.92 300.96C1597.61 288.992 1600.95 275.088 1600.95 259.248C1600.95 239.184 1594.09 222.64 1580.36 209.616C1566.98 196.24 1549.38 189.552 1527.56 189.552H1401.37L1405.06 182.16V348.48L1399.25 341.088ZM2095.12 530.112C2090.54 530.112 2086.67 528.176 2083.5 524.304L1933.55 335.808L1958.36 310.992L2109.37 502.128C2111.84 505.648 2113.07 509.344 2113.07 513.216C2113.07 518.848 2110.96 523.072 2106.73 525.888C2102.86 528.704 2098.99 530.112 2095.12 530.112ZM2089.31 159.456C2093.53 159.456 2097.05 161.04 2099.87 164.208C2103.04 167.376 2104.62 170.896 2104.62 174.768C2104.62 178.992 2103.04 182.688 2099.87 185.856L1860.16 410.256L1855.93 374.352L2077.69 164.736C2081.21 161.216 2085.08 159.456 2089.31 159.456ZM1847.48 528C1842.56 528 1838.51 526.416 1835.34 523.248C1832.52 520.08 1831.12 516.208 1831.12 511.632V174.768C1831.12 170.192 1832.7 166.32 1835.87 163.152C1839.04 159.984 1843.08 158.4 1848.01 158.4C1852.59 158.4 1856.46 159.984 1859.63 163.152C1862.8 166.32 1864.38 170.192 1864.38 174.768V511.632C1864.03 516.208 1862.27 520.08 1859.1 523.248C1855.93 526.416 1852.06 528 1847.48 528Z" fill="black"/>
</svg>
