<svg width="527" height="163" viewBox="0 0 527 163" fill="none" xmlns="http://www.w3.org/2000/svg">
<path d="M240.576 39.2682L199.412 130.277H228.498L237.865 106.197H224.061L246.492 56.803L248.218 94.3424H262.514L251.668 130.277H292.216L250.436 39.2682H240.576Z" fill="#FFE666"/>
<path d="M37.3524 131.704C30.7582 131.791 25.0317 130.748 20.1729 128.574C15.314 126.401 10.6721 123.141 6.24708 118.794C5.81325 118.447 5.42281 118.012 5.07575 117.49C4.81545 116.969 4.6853 116.36 4.6853 115.665C4.6853 114.622 5.07575 113.665 5.85663 112.796C6.72429 111.927 7.6787 111.492 8.71988 111.492C9.76107 111.492 10.7155 111.927 11.5831 112.796C14.967 116.447 18.7846 119.229 23.0361 121.142C27.3744 123.054 32.0163 124.01 36.962 124.01C41.1267 124.01 44.8142 123.358 48.0245 122.054C51.3216 120.75 53.9246 118.881 55.8334 116.447C57.7422 114.013 58.6966 111.188 58.6966 107.971C58.6966 103.972 57.6121 100.756 55.4429 98.3216C53.2738 95.8005 50.4106 93.7576 46.8532 92.1928C43.2958 90.5411 39.348 89.0632 35.0097 87.7592C31.4524 86.716 28.0685 85.5424 24.8582 84.2384C21.6479 82.8475 18.7846 81.1957 16.2685 79.2832C13.7523 77.2837 11.8 74.8496 10.4118 71.9808C9.02356 69.112 8.32944 65.6347 8.32944 61.5488C8.32944 56.9413 9.54415 52.8555 11.9736 49.2912C14.403 45.7269 17.8302 42.9451 22.2553 40.9456C26.767 38.8592 31.973 37.816 37.873 37.816C42.9921 37.816 47.8944 38.6853 52.5797 40.424C57.3518 42.1627 61.1261 44.7272 63.9025 48.1176C65.204 49.5085 65.8548 50.7691 65.8548 51.8992C65.8548 52.7685 65.4209 53.6379 64.5533 54.5072C63.6856 55.3765 62.7312 55.8112 61.69 55.8112C60.8224 55.8112 60.0849 55.5069 59.4775 54.8984C58.0025 53.0728 56.1371 51.4645 53.8812 50.0736C51.6253 48.5957 49.1091 47.4656 46.3326 46.6832C43.6429 45.9008 40.823 45.5096 37.873 45.5096C33.795 45.5096 30.1075 46.1616 26.8104 47.4656C23.6001 48.6827 21.0405 50.4648 19.1317 52.812C17.3096 55.1592 16.3986 57.9845 16.3986 61.288C16.3986 64.9392 17.4398 67.9384 19.5222 70.2856C21.6045 72.6328 24.3376 74.5888 27.7215 76.1536C31.1053 77.6315 34.7061 79.0224 38.5237 80.3264C42.2546 81.3696 45.812 82.5867 49.1959 83.9776C52.6665 85.2816 55.7032 86.9333 58.3062 88.9328C60.9959 90.9323 63.0783 93.4533 64.5533 96.496C66.1151 99.5387 66.896 103.364 66.896 107.971C66.896 112.405 65.6379 116.404 63.1217 119.968C60.6055 123.532 57.1349 126.358 52.7098 128.444C48.3716 130.53 43.2524 131.617 37.3524 131.704ZM146.094 39.12C150.953 39.12 155.248 40.2501 158.978 42.5104C162.709 44.6837 165.659 47.7264 167.829 51.6384C169.998 55.5504 171.082 60.0275 171.082 65.0696C171.082 70.1117 169.998 74.6757 167.829 78.7616C165.659 82.7605 162.709 85.9336 158.978 88.2808C155.248 90.628 150.953 91.8016 146.094 91.8016H118.503L119.153 90.4976V126.488C119.153 127.531 118.763 128.444 117.982 129.226C117.201 130.009 116.29 130.4 115.249 130.4C114.034 130.4 113.08 130.009 112.386 129.226C111.691 128.444 111.344 127.531 111.344 126.488V43.032C111.344 41.9888 111.735 41.076 112.516 40.2936C113.297 39.5112 114.208 39.12 115.249 39.12H146.094ZM146.094 84.2384C149.478 84.2384 152.428 83.4125 154.944 81.7608C157.46 80.0221 159.412 77.7184 160.801 74.8496C162.276 71.8939 163.013 68.6339 163.013 65.0696C163.013 61.5053 162.276 58.3757 160.801 55.6808C159.412 52.8989 157.46 50.7256 154.944 49.1608C152.428 47.596 149.478 46.8136 146.094 46.8136H118.503L119.153 45.64V85.0208L118.372 84.2384H146.094ZM342.562 130.4C341.261 130.4 340.176 130.009 339.309 129.226C338.527 128.444 338.138 127.531 338.138 126.488V43.032C338.138 41.9888 338.527 41.076 339.309 40.2936C340.09 39.5112 341 39.12 342.042 39.12H377.182C382.127 39.12 386.551 40.2067 390.456 42.38C394.36 44.4664 397.397 47.3787 399.566 51.1168C401.824 54.8549 402.95 59.0712 402.95 63.7656C402.95 67.5907 402.258 71.1115 400.868 74.328C399.48 77.5445 397.528 80.2829 395.011 82.5432C392.497 84.7165 389.677 86.3248 386.551 87.368L381.996 85.9336C385.208 86.1944 388.2 87.2376 390.978 89.0632C393.754 90.8019 395.967 93.236 397.614 96.3656C399.349 99.4083 400.261 103.103 400.347 107.45C400.434 111.188 400.609 114.1 400.868 116.186C401.215 118.273 401.693 119.838 402.3 120.881C402.908 121.924 403.687 122.75 404.644 123.358C405.511 123.88 406.073 124.619 406.335 125.575C406.682 126.531 406.596 127.444 406.073 128.314C405.728 129.009 405.206 129.531 404.513 129.878C403.904 130.139 403.254 130.27 402.561 130.27C401.866 130.27 401.173 130.096 400.478 129.748C399.263 129.053 398.006 127.966 396.704 126.488C395.489 125.01 394.449 122.837 393.581 119.968C392.8 117.099 392.408 113.1 392.408 107.971C392.408 104.581 391.846 101.799 390.717 99.6256C389.677 97.4523 388.287 95.8005 386.551 94.6704C384.905 93.4533 383.039 92.6275 380.956 92.1928C378.959 91.6712 377.051 91.4104 375.23 91.4104H344.904L346.336 89.5848V126.488C346.336 127.531 345.989 128.444 345.296 129.226C344.601 130.009 343.691 130.4 342.562 130.4ZM344.904 84.2384H377.572C380.522 83.9776 383.298 83.0213 385.901 81.3696C388.503 79.6309 390.586 77.2837 392.149 74.328C393.798 71.3723 394.621 67.9384 394.621 64.0264C394.621 59.0712 392.93 54.9853 389.546 51.7688C386.248 48.4653 381.91 46.8136 376.531 46.8136H345.427L346.336 44.988V86.064L344.904 84.2384ZM516.43 130.922C515.301 130.922 514.348 130.443 513.566 129.487L476.605 82.9344L482.72 76.8056L519.943 124.01C520.552 124.88 520.855 125.793 520.855 126.749C520.855 128.14 520.335 129.183 519.292 129.878C518.338 130.574 517.384 130.922 516.43 130.922ZM514.998 39.3808C516.038 39.3808 516.906 39.772 517.601 40.5544C518.383 41.3368 518.772 42.2061 518.772 43.1624C518.772 44.2056 518.383 45.1184 517.601 45.9008L458.515 101.321L457.472 92.4536L512.134 40.6848C513.002 39.8155 513.956 39.3808 514.998 39.3808ZM455.389 130.4C454.176 130.4 453.178 130.009 452.397 129.226C451.702 128.444 451.356 127.488 451.356 126.358V43.1624C451.356 42.0323 451.746 41.076 452.527 40.2936C453.309 39.5112 454.305 39.12 455.52 39.12C456.649 39.12 457.603 39.5112 458.384 40.2936C459.165 41.076 459.555 42.0323 459.555 43.1624V126.358C459.469 127.488 459.035 128.444 458.253 129.226C457.472 130.009 456.518 130.4 455.389 130.4Z" fill="white"/>
</svg>
